<?xml version="1.0" standalone="no"?>
<!DOCTYPE svg PUBLIC "-//W3C//DTD SVG 20010904//EN"
 "http://www.w3.org/TR/2001/REC-SVG-20010904/DTD/svg10.dtd">
<svg version="1.0" xmlns="http://www.w3.org/2000/svg"
 width="260.000000pt" height="260.000000pt" viewBox="0 0 260.000000 260.000000"
 preserveAspectRatio="xMidYMid meet">
<metadata>
Created by potrace 1.11, written by Peter Selinger 2001-2013
</metadata>
<g transform="translate(0.000000,260.000000) scale(0.100000,-0.100000)"
fill="#000000" stroke="none">
<path d="M0 1300 l0 -1300 1300 0 1300 0 0 1300 0 1300 -1300 0 -1300 0 0
-1300z m1870 831 l0 -150 -321 -3 c-304 -3 -321 -4 -335 -22 -11 -16 -14 -67
-14 -248 0 -136 -5 -247 -11 -273 -7 -26 -28 -63 -50 -89 l-39 -45 24 -24 c13
-13 35 -44 47 -68 22 -42 24 -57 29 -302 4 -214 8 -259 20 -267 9 -6 150 -10
333 -10 l317 0 0 -150 0 -151 -407 3 c-407 3 -408 3 -457 27 -51 25 -96 83
-117 151 -7 20 -14 157 -18 318 -7 326 -2 310 -106 333 l-55 12 0 138 0 137
48 16 c27 9 62 30 78 47 l29 30 6 262 c6 282 12 315 65 384 63 82 117 91 567
92 l367 1 0 -149z"/>
</g>
</svg>
